<svg width="66" height="33" viewBox="0 0 66 33" fill="none" xmlns="http://www.w3.org/2000/svg">
<g clip-path="url(#clip0_52_330)">
<path d="M31.1197 0.261963L27.1794 7.42715H9.33875V11.0436H25.2076L21.8745 17.2321H9.33875V21.1967H26.7485L23.4317 28.3973H0.371094V0.261963H31.1197Z" fill="#BB33FF"/>
<path d="M41.5692 10.7667H36.7573L38.778 7.47576L43.4234 0.197754H32.5069L23.9864 15.9592H30.7244L23.1475 32.1978L41.5692 10.7667Z" fill="#FFA602"/>
<path d="M49.7274 0.197559H44.8502L40.1591 7.47556H52.2868C52.2868 7.47556 56.4654 7.26605 56.4654 10.7665C56.4654 10.7665 56.8408 13.9639 52.5676 13.9639H40.6651L28.5537 28.3942H38.6933L41.984 21.1839H51.6372C51.6372 21.1839 65.3613 21.7802 65.3613 11.4594C65.3613 11.4594 66.3471 0.194336 49.7274 0.194336V0.197559Z" fill="#FFA602"/>
</g>
<defs>
<clipPath id="clip0_52_330">
<rect width="65" height="32" fill="white" transform="translate(0.371094 0.19751)"/>
</clipPath>
</defs>
</svg>
