<svg width="79" height="75" viewBox="0 0 79 75" fill="none" xmlns="http://www.w3.org/2000/svg">
<path d="M15.5109 28.1872L13.1878 25.8643L9.98682 29.0655L15.5109 34.5897L24.8075 25.2928L21.6065 22.0917L15.5109 28.1872Z" fill="#383A49"/>
<path d="M15.5109 43.8813L13.1878 41.5584L9.98682 44.7596L15.5109 50.2838L24.8075 40.9869L21.6065 37.7858L15.5109 43.8813Z" fill="#383A49"/>
<path d="M10.833 57.4949H23.9618V62.0221H10.833V57.4949Z" fill="#383A49"/>
<path d="M29.6963 25.3521H48.2577V29.8792H29.6963V25.3521Z" fill="#383A49"/>
<path d="M29.6963 40.4427H48.2577V44.9698H29.6963V40.4427Z" fill="#383A49"/>
<path d="M67.3048 36.9106L60.7825 43.4692V17.8942L43.6401 0H0.873047V75H51.463L78.1265 48.1574L67.3048 36.9106ZM44.9374 7.89854L52.5502 15.8451H44.9374V7.89854ZM40.4103 70.4728H5.40021V4.52716H40.4103V20.3722H56.2553V48.0217L40.4103 63.9555V70.4728ZM49.5788 70.4728H44.9374V65.8231L60.0213 50.6559L64.6577 55.2924L49.5788 70.4728ZM63.213 47.4454L67.2514 43.3844L71.7954 48.107L67.8482 52.0808L63.213 47.4454Z" fill="#383A49"/>
</svg>
