<svg width="22" height="22" viewBox="0 0 22 22" fill="none" xmlns="http://www.w3.org/2000/svg">
<path d="M17.056 4.34057V1.71886H11.6434V0H10.3543V1.71886H4.94171V4.34057H0V22H22V4.34057H17.0583H17.056ZM1.28914 20.7109V5.62971H4.94171V20.7109H1.28914ZM12.9326 20.7109H11.6434V18.1326H12.9326V20.7109ZM10.3543 20.7109H9.06514V18.1326H10.3543V20.7109ZM15.7669 20.7109H14.2217V16.8434H7.776V20.7109H6.23086V3.008H15.7669V20.7109ZM20.7109 20.7109H17.0583V5.62971H20.7109V20.7109Z" fill="black"/>
<path d="M7.77588 12.9761H9.06502V14.2652H7.77588V12.9761Z" fill="black"/>
<path d="M10.3545 12.9761H11.6436V14.2652H10.3545V12.9761Z" fill="black"/>
<path d="M12.9326 12.9761H14.2218V14.2652H12.9326V12.9761Z" fill="black"/>
<path d="M7.77588 10.3977H9.06502V11.6868H7.77588V10.3977Z" fill="black"/>
<path d="M10.3545 10.3977H11.6436V11.6868H10.3545V10.3977Z" fill="black"/>
<path d="M12.9326 10.3977H14.2218V11.6868H12.9326V10.3977Z" fill="black"/>
<path d="M7.77588 7.81934H9.06502V9.10848H7.77588V7.81934Z" fill="black"/>
<path d="M10.3545 7.81934H11.6436V9.10848H10.3545V7.81934Z" fill="black"/>
<path d="M12.9326 7.81934H14.2218V9.10848H12.9326V7.81934Z" fill="black"/>
<path d="M18.2402 12.9761H19.5294V14.2652H18.2402V12.9761Z" fill="black"/>
<path d="M18.2402 15.5542H19.5294V16.8433H18.2402V15.5542Z" fill="black"/>
<path d="M18.2402 10.3977H19.5294V11.6868H18.2402V10.3977Z" fill="black"/>
<path d="M18.2402 7.81934H19.5294V9.10848H18.2402V7.81934Z" fill="black"/>
<path d="M2.4707 12.9761H3.75985V14.2652H2.4707V12.9761Z" fill="black"/>
<path d="M2.4707 15.5542H3.75985V16.8433H2.4707V15.5542Z" fill="black"/>
<path d="M2.4707 10.3977H3.75985V11.6868H2.4707V10.3977Z" fill="black"/>
<path d="M2.4707 7.81934H3.75985V9.10848H2.4707V7.81934Z" fill="black"/>
<path d="M7.77588 5.24121H9.06502V6.53035H7.77588V5.24121Z" fill="black"/>
<path d="M12.9326 5.24121H14.2218V6.53035H12.9326V5.24121Z" fill="black"/>
<path d="M10.3545 5.24121H11.6436V6.53035H10.3545V5.24121Z" fill="black"/>
</svg>
