<svg width="75" height="63" viewBox="0 0 75 63" fill="none" xmlns="http://www.w3.org/2000/svg">
<path d="M74.4604 23.5817C74.4604 23.0859 74.4466 22.5764 74.4055 22.0325L74.2822 20.0565H70.9456L70.3564 21.1994C68.1777 25.4338 63.8819 28.057 59.1476 28.057C52.2003 28.057 46.5411 22.3768 46.5411 15.3883C46.5411 10.6307 49.1584 6.31369 53.3719 4.12421L54.5093 3.53897V0.185899L52.5429 0.0550812C51.9948 0.0137703 51.4878 0 50.9945 0C38.0523 0 27.5287 10.5756 27.5287 23.5817C27.5287 23.7744 27.5287 23.9672 27.5355 24.1669V24.2633L27.4396 24.2495C26.8778 24.1944 26.316 24.1669 25.7816 24.1669C21.5132 24.1669 17.4503 25.778 14.333 28.6973C11.6404 31.2242 9.87963 34.4809 9.24931 38.1093V38.1644L9.18765 38.1782C3.78194 39.6585 0 44.6365 0 50.2685C0 57.1881 5.59754 62.8133 12.4763 62.8133H53.4541C58.9284 62.8133 63.3886 58.331 63.3886 52.8298C63.3886 50.1997 62.3746 47.7141 60.5384 45.8345C60.4151 45.7106 60.2781 45.5797 60.1273 45.442L60.0314 45.3525L60.1548 45.3043C68.8491 41.6001 74.4604 33.0763 74.4604 23.5817ZM53.4541 58.5858H12.4763C7.91329 58.5858 4.20671 54.854 4.20671 50.2685C4.20671 46.103 7.30352 42.5572 11.4075 42.027L13.1135 41.8067L13.2368 40.0854C13.4697 36.9182 14.8811 33.9714 17.2037 31.7888C19.54 29.5993 22.582 28.3944 25.7816 28.3944C30.9407 28.3944 35.5242 31.4996 37.4494 36.3123L38.0729 37.8684L39.7241 37.6067C40.2722 37.5241 40.8203 37.4828 41.3752 37.4828C46.2054 37.4828 50.3984 40.767 51.5632 45.4765L51.9537 47.0463L53.5638 47.0807C56.6606 47.1358 59.1819 49.7177 59.1819 52.8298C59.1819 55.9419 56.6126 58.5858 53.4541 58.5858ZM55.0916 42.4952L55.0162 42.5158L54.9888 42.447C52.7347 36.8631 47.3907 33.2553 41.3752 33.2553C41.1628 33.2553 40.9505 33.2622 40.7381 33.2691H40.6833L40.6558 33.2209C39.3952 30.7973 37.5385 28.6904 35.2775 27.1275C34.2156 26.3908 33.0646 25.778 31.8587 25.3098L31.8108 25.2892V25.2341C31.756 24.6695 31.7285 24.1118 31.7285 23.5817C31.7285 14.9821 37.4837 7.32581 45.7121 4.9642L45.9656 4.88846L45.808 5.09502C43.5334 8.06252 42.3344 11.6221 42.3344 15.3883C42.3344 24.7039 49.8777 32.2845 59.1476 32.2845C62.8953 32.2845 66.4374 31.0796 69.3835 28.8006L69.589 28.6423L69.5205 28.8901C67.5679 35.7753 62.0389 40.9942 55.0916 42.4952Z" fill="black"/>
</svg>
