<svg width="22" height="19" viewBox="0 0 22 19" fill="none" xmlns="http://www.w3.org/2000/svg">
<path d="M18.8844 6.26436V1.47215H15.1403V3.28915L11 0L0 8.74014L2.24974 11.7629L3.43333 10.8211V19H9.87858V13.0519H12.3793V19H18.5644V10.8211L19.748 11.7629L22 8.74014L18.8844 6.26436ZM17.3808 17.7776H13.5652V11.8295H8.69269V17.7776H4.61922V9.87933L11 4.81124L17.3808 9.87933V17.7776ZM19.5315 10.0458L11 3.26536L2.46619 10.0458L1.66025 8.9637L11 1.5435L16.3238 5.77444V2.69696H17.6986V6.86607L20.3398 8.9637L19.5315 10.0458Z" fill="black"/>
</svg>
