<svg width="75" height="75" viewBox="0 0 75 75" fill="none" xmlns="http://www.w3.org/2000/svg">
<path d="M60.5293 0H17.5781V30.9828C12.5695 32.0036 8.78906 36.4425 8.78906 41.748C8.78906 45.2164 10.4451 48.4771 13.1836 50.5371V61.8164H0V75H75V14.4708L60.5293 0ZM61.8164 7.5019L67.4981 13.1836H61.8164V7.5019ZM16.4811 47.4593C14.447 46.2828 13.1836 44.0943 13.1836 41.748C13.1836 38.1133 16.1407 35.1562 19.7754 35.1562C23.4101 35.1562 26.3672 38.1133 26.3672 41.748C26.3672 44.0943 25.1038 46.2828 23.0697 47.4593L21.9727 48.0939V61.8164H17.5781V48.0939L16.4811 47.4593ZM35.1951 70.6055H4.39453V66.2109H35.2733L35.1951 70.6055ZM39.5903 70.6055L39.7468 61.8164H26.3672V50.5371C28.5171 48.9198 29.9994 46.5623 30.5375 43.9453H61.8164V39.5508H30.5407C29.6647 35.2523 26.2711 31.8589 21.9727 30.9828V4.39453H57.4219V17.5781H70.6055V70.6055H39.5903Z" fill="#383A49"/>
<path d="M57.4219 48.3398C52.5756 48.3398 48.6328 52.2826 48.6328 57.1289C48.6328 61.9752 52.5756 65.918 57.4219 65.918C62.2682 65.918 66.2109 61.9752 66.2109 57.1289C66.2109 52.2826 62.2682 48.3398 57.4219 48.3398ZM57.4219 61.5234C54.9987 61.5234 53.0273 59.5521 53.0273 57.1289C53.0273 54.7058 54.9987 52.7344 57.4219 52.7344C59.845 52.7344 61.8164 54.7058 61.8164 57.1289C61.8164 59.5521 59.845 61.5234 57.4219 61.5234Z" fill="#383A49"/>
<path d="M30.7617 30.7617H61.8164V35.1562H30.7617V30.7617Z" fill="#383A49"/>
<path d="M30.7617 21.9727H61.8164V26.3672H30.7617V21.9727Z" fill="#383A49"/>
<path d="M30.7617 13.1836H48.6328V17.5781H30.7617V13.1836Z" fill="#383A49"/>
</svg>
