<svg width="75" height="75" viewBox="0 0 75 75" fill="none" xmlns="http://www.w3.org/2000/svg">
<path d="M35.3027 0H39.6973V4.39453H35.3027V0Z" fill="#383A49"/>
<path d="M24.6104 4.0423L28.416 1.84503L30.6133 5.6507L26.8076 7.84796L24.6104 4.0423Z" fill="#383A49"/>
<path d="M17.3721 12.8897L19.5693 9.08404L23.375 11.2813L21.1777 15.087L17.3721 12.8897Z" fill="#383A49"/>
<path d="M15.5273 19.7754H19.9219V24.1699H15.5273V19.7754Z" fill="#383A49"/>
<path d="M55.0781 19.7754H59.4727V24.1699H55.0781V19.7754Z" fill="#383A49"/>
<path d="M51.623 11.2807L55.4287 9.08344L57.626 12.8891L53.8203 15.0864L51.623 11.2807Z" fill="#383A49"/>
<path d="M44.3857 5.65204L46.583 1.84637L50.3887 4.04364L48.1914 7.8493L44.3857 5.65204Z" fill="#383A49"/>
<path d="M44.0918 70.6055V66.2109H70.6055V28.5645H48.9306C50.0694 26.595 50.6836 24.3384 50.6836 21.9727C50.6836 14.7032 44.7694 8.78906 37.5 8.78906C30.2306 8.78906 24.3164 14.7032 24.3164 21.9727C24.3164 24.3384 24.9306 26.595 26.0694 28.5645H4.39453V66.2109H30.9082V70.6055H0V75H75V70.6055H44.0918ZM24.2432 44.043H35.3027V50.7325H24.2432V44.043ZM19.8486 50.7324H8.78906V44.0429H19.8486V50.7324ZM35.3027 32.959V39.6485H24.2432V32.959H35.3027ZM50.7568 32.959V39.6485H39.6973V32.959H50.7568ZM50.7568 50.7324H39.6973V44.0429H50.7568V50.7324ZM55.1514 44.043H66.2109V50.7325H55.1514V44.043ZM50.7568 55.1269V61.8164H39.6973V55.1269H50.7568ZM35.3027 55.1269V61.8164H24.2432V55.1269H35.3027ZM55.1514 61.8164V55.1269H66.2109V61.8164H55.1514ZM66.2109 39.6485H55.1514V32.959H66.2109V39.6485ZM28.7109 21.9727C28.7109 17.1264 32.6537 13.1836 37.5 13.1836C42.3463 13.1836 46.2891 17.1264 46.2891 21.9727C46.2891 24.5301 45.2099 26.8947 43.3099 28.5645H31.6903C29.7901 26.8947 28.7109 24.5301 28.7109 21.9727ZM19.8486 32.959V39.6485H8.78906V32.959H19.8486ZM8.78906 55.1269H19.8486V61.8164H8.78906V55.1269ZM35.3027 66.2109H39.6973V70.6055H35.3027V66.2109Z" fill="#383A49"/>
</svg>
