<svg width="65" height="32" viewBox="0 0 65 32" fill="none" xmlns="http://www.w3.org/2000/svg">
<g clip-path="url(#clip0_52_47)">
<path d="M30.7486 0.0644531L26.8083 7.22964H8.96766V10.8461H24.8365L21.5034 17.0346H8.96766V20.9992H26.3774L23.0606 28.1998H0V0.0644531H30.7486Z" fill="#F5F5F5"/>
<path d="M41.1981 10.5691H36.3862L38.4069 7.27825L43.0523 0.000244141H32.1358L23.6154 15.7617H30.3533L22.7764 32.0002L41.1981 10.5691Z" fill="#F5F5F5"/>
<path d="M49.3563 4.93787e-05H44.4791L39.788 7.27805H51.9157C51.9157 7.27805 56.0943 7.06854 56.0943 10.5689C56.0943 10.5689 56.4697 13.7664 52.1965 13.7664H40.294L28.1826 28.1967H38.3222L41.6129 20.9864H51.2661C51.2661 20.9864 64.9902 21.5826 64.9902 11.2619C64.9902 11.2619 65.976 -0.00317383 49.3563 -0.00317383V4.93787e-05Z" fill="#F5F5F5"/>
</g>
<defs>
<clipPath id="clip0_52_47">
<rect width="65" height="32" fill="white"/>
</clipPath>
</defs>
</svg>
