<svg width="75" height="75" viewBox="0 0 75 75" fill="none" xmlns="http://www.w3.org/2000/svg">
<g clip-path="url(#clip0_52_193)">
<path d="M37.5 57.9434C26.2276 57.9434 17.0566 48.7726 17.0566 37.5C17.0566 26.2274 26.2276 17.0566 37.5 17.0566C48.7724 17.0566 57.9434 26.2274 57.9434 37.5C57.9434 48.7726 48.7724 57.9434 37.5 57.9434ZM37.5 21.4512C28.6507 21.4512 21.4512 28.6506 21.4512 37.5C21.4512 46.3494 28.6507 53.5488 37.5 53.5488C46.3493 53.5488 53.5488 46.3493 53.5488 37.5C53.5488 28.6507 46.3493 21.4512 37.5 21.4512Z" fill="#383A49"/>
<path d="M35.2023 45.4408L28.731 38.9692L31.8383 35.8619L35.2023 39.226L43.3157 31.1128L46.423 34.2204L35.2023 45.4408Z" fill="#383A49"/>
<path d="M43.5643 75H31.4355L29.2597 67.5092C26.7655 66.824 24.3722 65.8293 22.1169 64.5407L15.2716 68.3046L6.69522 59.7283L10.459 52.8828C9.17036 50.6275 8.17573 48.2342 7.49048 45.7402L0 43.5645V31.4355L7.49077 29.2598C8.17603 26.7658 9.17065 24.3725 10.4593 22.1172L6.69551 15.2717L15.2719 6.69536L22.1172 10.4593C24.3725 9.17065 26.7656 8.17617 29.26 7.49077L31.4357 0H43.5645L45.7403 7.49077C48.2345 8.17603 50.6278 9.17065 52.8831 10.4593L59.7284 6.69536L68.3048 15.2717L64.541 22.1172C65.8296 24.3725 66.8243 26.7658 67.5095 29.2598L75 31.4355V43.5645L67.5092 45.7402C66.824 48.2342 65.8293 50.6275 64.5407 52.8828L68.3045 59.7283L59.7281 68.3046L52.8828 64.5407C50.6275 65.8293 48.2344 66.8238 45.74 67.5092L43.5643 75ZM34.7353 70.6055H40.2647L42.2313 63.8348L43.4893 63.5457C46.3843 62.8803 49.1358 61.7369 51.6675 60.1468L52.7622 59.4593L58.9542 62.8639L62.8642 58.954L59.4596 52.7619L60.1469 51.6672C61.7369 49.1354 62.8805 46.3838 63.5458 43.4889L63.835 42.231L70.6055 40.2647V34.7353L63.8348 32.7687L63.5457 31.5108C62.8803 28.6159 61.7367 25.8643 60.1468 23.3325L59.4595 22.2378L62.8641 16.0458L58.9541 12.1359L52.7621 15.5405L51.6674 14.8531C49.1357 13.2631 46.3841 12.1195 43.4892 11.4542L42.2312 11.165L40.2647 4.39453H34.7353L32.7687 11.1652L31.5107 11.4543C28.6157 12.1197 25.8642 13.2631 23.3325 14.8532L22.2378 15.5407L16.0459 12.1359L12.1359 16.0459L15.5405 22.2379L14.8532 23.3326C13.2633 25.8645 12.1197 28.616 11.4543 31.511L11.1652 32.7688L4.39453 34.7353V40.2647L11.1652 42.2313L11.4543 43.4892C12.1197 46.3841 13.2633 49.1357 14.8532 51.6675L15.5405 52.7622L12.1359 58.9541L16.0459 62.8641L22.2379 59.4595L23.3326 60.1469C25.8643 61.7369 28.6159 62.8805 31.5108 63.5458L32.7688 63.835L34.7353 70.6055Z" fill="#383A49"/>
</g>
<defs>
<clipPath id="clip0_52_193">
<rect width="75" height="75" fill="white"/>
</clipPath>
</defs>
</svg>
