<svg width="75" height="75" viewBox="0 0 75 75" fill="none" xmlns="http://www.w3.org/2000/svg">
<path d="M70.7332 53.0226C69.7535 52.0173 68.6436 51.2049 67.4309 50.5852C66.2182 49.9656 64.9027 49.5525 63.5325 49.3459H63.4777L63.4571 49.2908C61.3811 42.5709 55.2766 37.8339 48.2814 37.4966H48.1581L48.1992 37.3795C48.7336 35.9474 49.0967 34.4464 49.2748 32.9179V32.8422H61.1551V28.6216H49.2817V28.5459C48.8775 25.0551 47.5072 21.7571 45.3285 18.9961L45.2805 18.9342L53.6802 10.493L50.7136 7.5117L42.3139 15.9529L42.2522 15.9047C39.5048 13.7152 36.223 12.3382 32.7494 11.9389H32.674V0H28.4742V11.932H28.3988C24.932 12.3382 21.6434 13.7152 18.896 15.9047L18.8343 15.9529L10.4414 7.5117L7.46796 10.493L15.8677 18.9342L15.8197 18.9961C13.641 21.7571 12.2776 25.0551 11.8802 28.5459L11.8665 28.6216H0V32.8422H11.8665V32.9179C12.2776 36.4018 13.641 39.7067 15.8197 42.4676L15.8677 42.5227L7.46796 50.9639L10.4414 53.9521L18.8343 45.5109L18.896 45.5591C21.9517 47.9964 25.624 49.3941 29.5019 49.6144L29.9815 49.642L29.5224 49.7866C27.5424 50.3993 25.7131 51.5216 24.24 53.0226C21.8695 55.4324 20.5677 58.6271 20.5677 62.0215C20.5677 69.0857 26.2817 74.8279 33.3112 74.8279H61.6621C68.6915 74.8279 74.4124 69.0857 74.4124 62.0215C74.4124 58.6271 73.1038 55.4324 70.7332 53.0226ZM15.9499 30.7285C15.9499 22.6246 22.5135 16.0286 30.5775 16.0286C38.6416 16.0286 45.2051 22.6246 45.2051 30.7285C45.2051 33.276 44.5406 35.789 43.2936 37.9923L43.2731 38.0267H43.2388C39.2239 39.1008 35.7571 41.6139 33.4756 45.1115L33.4551 45.146H33.4208C32.4891 45.3319 31.5299 45.4283 30.5775 45.4283C22.5135 45.4283 15.9499 38.8323 15.9499 30.7285ZM61.6621 70.6073H33.3112C28.5975 70.6073 24.7607 66.7585 24.7607 62.0215C24.7607 57.2845 28.5427 53.4977 33.1879 53.4288L34.8802 53.4082L35.2159 51.7419C36.4012 45.924 41.5602 41.6965 47.4866 41.6965C53.413 41.6965 58.5721 45.924 59.7574 51.7419L60.0999 53.4082L61.7854 53.4288C66.4306 53.4977 70.2125 57.3465 70.2125 62.0215C70.2125 66.6965 66.3758 70.6073 61.6621 70.6073Z" fill="black"/>
</svg>
