<svg width="75" height="75" viewBox="0 0 75 75" fill="none" xmlns="http://www.w3.org/2000/svg">
<path d="M37.3124 61.2916C24.2743 61.2916 13.6616 50.6196 13.6616 37.4965C13.6616 24.3734 24.2675 13.7014 37.3124 13.7014C50.3574 13.7014 60.9633 24.3734 60.9633 37.4965C60.9633 50.6196 50.3574 61.2916 37.3124 61.2916ZM37.3124 18.101C26.686 18.101 18.0396 26.8039 18.0396 37.4965C18.0396 48.1892 26.686 56.892 37.3124 56.892C47.9389 56.892 56.5853 48.1892 56.5853 37.4965C56.5853 26.8039 47.9389 18.101 37.3124 18.101Z" fill="black"/>
<path d="M35.127 0H39.4981V9.89397H35.127V0Z" fill="black"/>
<path d="M9.37939 12.5378L12.4693 9.43262L19.4303 16.4279L16.3404 19.5331L9.37939 12.5378Z" fill="black"/>
<path d="M0 35.3002H9.84537V39.6929H0V35.3002Z" fill="black"/>
<path d="M9.37256 62.4553L16.3335 55.46L19.4235 58.5652L12.4625 65.5605L9.37256 62.4553Z" fill="black"/>
<path d="M35.127 65.106H39.4981V75H35.127V65.106Z" fill="black"/>
<path d="M55.1807 58.572L58.2706 55.4668L65.2316 62.4621L62.1416 65.5673L55.1807 58.572Z" fill="black"/>
<path d="M64.7861 35.3002H74.6315V39.6929H64.7861V35.3002Z" fill="black"/>
<path d="M55.1875 16.4349L62.1485 9.43958L65.2384 12.5448L58.2775 19.5401L55.1875 16.4349Z" fill="black"/>
</svg>
